# xmcd CD database file
#
# Track frame offsets:
#	150
#	6790
#	20565
#	45203
#	55624
#	61232
#	88021
#	95476
#	109244
#	129047
#	137367
#	148803
#	162432
#	174965
#	184409
#	203807
#	217020
#	227926
#	239688
#	253365
#	274557
#	307076
#	325963
#
# Disc length: 4538 seconds
#
# Revision: 4
# Processed by: cddbd v1.5.2PL0 Copyright (c) Steve Scherf et al.
# Submitted via: CDex 1.70beta2
#
DISCID=4b11b817
DTITLE=よしだ たくろう - ひきがたり
DYEAR=2002
DGENRE=Folk
TTITLE0=高円寺
TTITLE1=ガラスの言葉
TTITLE2=青春の詩
TTITLE3=花嫁になる君に
TTITLE4=馬
TTITLE5=制服
TTITLE6=ある雨の日の情景
TTITLE7=蒼い夏
TTITLE8=おやじの唄
TTITLE9=リンゴ
TTITLE10=旅の宿（アルバムバージョン）
TTITLE11=今日までそして明日から
TTITLE12=長い雨の後に
TTITLE13=人間なんて
TTITLE14=祭りのあと
TTITLE15=BLOWIN? IN THE WIND
TTITLE16=大いなる
TTITLE17=ロンリー・ストリート・キャフェ
TTITLE18=マークⅡ
TTITLE19=されど私の人生
TTITLE20=イメージの詩
TTITLE21=ともだち
TTITLE22=落陽(Acoustic Version)
EXTD=YEAR: 2002
EXTT0=
EXTT1=
EXTT2=
EXTT3=
EXTT4=
EXTT5=
EXTT6=
EXTT7=
EXTT8=
EXTT9=
EXTT10=
EXTT11=
EXTT12=
EXTT13=
EXTT14=
EXTT15=
EXTT16=
EXTT17=
EXTT18=
EXTT19=
EXTT20=
EXTT21=
EXTT22=
PLAYORDER=
